<?xml version="1.0" encoding="utf-8"?>
<!-- Generator: Adobe Illustrator 19.2.1, SVG Export Plug-In . SVG Version: 6.00 Build 0)  -->
<svg version="1.1" id="Слой_1" xmlns="http://www.w3.org/2000/svg" xmlns:xlink="http://www.w3.org/1999/xlink" x="0px" y="0px"
	 viewBox="0 0 40 40" style="enable-background:new 0 0 40 40;" xml:space="preserve">
<style type="text/css">
	.st0{clip-path:url(#SVGID_2_);fill:#7296CD;}
	.st1{clip-path:url(#SVGID_2_);fill:#FFFFFF;}
</style>
<g>
	<defs>
		<rect id="SVGID_1_" width="40" height="40"/>
	</defs>
	<clipPath id="SVGID_2_">
		<use xlink:href="#SVGID_1_"  style="overflow:visible;"/>
	</clipPath>
	<path class="st0" d="M20,0c11,0,20,9,20,20s-9,20-20,20S0,31,0,20S9,0,20,0"/>
	<polygon class="st1" points="6.9,12.2 6.9,27.8 14.5,20 	"/>
	<polygon class="st1" points="33.1,12.2 33.1,27.8 25.6,20 	"/>
	<path class="st1" d="M7.5,11.5h25l-9.8,10.2C22,22.5,21,22.9,20,22.9c-1,0-2-0.4-2.7-1.1L7.5,11.5z"/>
	<path class="st1" d="M23.2,22.3c-0.8,0.9-2,1.4-3.2,1.4c-1.2,0-2.4-0.5-3.2-1.4l-1.7-1.7l-7.6,7.9h25l-7.6-7.9L23.2,22.3z"/>
</g>
</svg>
