<?xml version="1.0" encoding="utf-8"?>
<!-- Generator: Adobe Illustrator 19.2.1, SVG Export Plug-In . SVG Version: 6.00 Build 0)  -->
<svg version="1.1" id="Слой_1" xmlns="http://www.w3.org/2000/svg" xmlns:xlink="http://www.w3.org/1999/xlink" x="0px" y="0px"
	 viewBox="0 0 40 40" style="enable-background:new 0 0 40 40;" xml:space="preserve">
<style type="text/css">
	.st0{fill:#DAB81A;}
</style>
<g>
	<g>
		<path class="st0" d="M20,0C9,0,0,9,0,20c0,11,9,20,20,20s20-9,20-20C40,9,31,0,20,0z M12.5,13.7H24l-0.1-0.1
			c-0.6-0.6-0.6-1.5,0-2.1c0.6-0.6,1.5-0.6,2,0l2.7,2.7c0,0,0,0,0,0c0,0,0,0,0,0c0,0,0,0,0,0c0,0,0,0,0,0c0,0,0,0,0,0.1l0,0
			c0,0,0,0,0,0c0.1,0.1,0.2,0.3,0.3,0.4c0.1,0.2,0.1,0.4,0.1,0.6c0,0,0,0.1,0,0.1v0c0,0,0,0,0,0c0,0.1,0,0.2,0,0.3v0
			c-0.1,0.2-0.2,0.4-0.4,0.6c0,0,0,0,0,0l-2.7,2.7c-0.3,0.3-0.6,0.4-1,0.4c-0.4,0-0.7-0.2-1-0.4c-0.6-0.6-0.5-1.5,0-2.1l0.1-0.2
			H12.5c-0.8,0-1.4-0.7-1.4-1.5C11,14.3,11.7,13.7,12.5,13.7z M27.6,26.3H16l0.1,0.2c0.6,0.6,0.6,1.5,0,2.1c-0.3,0.3-0.7,0.4-1,0.4
			c-0.4,0-0.7-0.1-1-0.4l-2.7-2.7c0,0,0,0-0.1,0c-0.2-0.2-0.3-0.4-0.4-0.6c0,0,0,0,0,0c0,0,0,0,0,0c0-0.1-0.1-0.2-0.1-0.4v0
			c0-0.2,0.1-0.3,0.1-0.5c0.1-0.2,0.2-0.4,0.4-0.5c0,0,0,0,0,0l2.7-2.7c0.6-0.6,1.5-0.6,2,0c0.6,0.6,0.5,1.5,0,2.1L16,23.4h11.5
			c0.8,0,1.4,0.7,1.4,1.5C29,25.6,28.4,26.3,27.6,26.3z"/>
	</g>
</g>
</svg>
