<?xml version="1.0" encoding="UTF-8" standalone="no"?>
<svg
   xmlns:osb="http://www.openswatchbook.org/uri/2009/osb"
   xmlns:dc="http://purl.org/dc/elements/1.1/"
   xmlns:cc="http://creativecommons.org/ns#"
   xmlns:rdf="http://www.w3.org/1999/02/22-rdf-syntax-ns#"
   xmlns:svg="http://www.w3.org/2000/svg"
   xmlns="http://www.w3.org/2000/svg"
   xmlns:xlink="http://www.w3.org/1999/xlink"
   xmlns:sodipodi="http://sodipodi.sourceforge.net/DTD/sodipodi-0.dtd"
   xmlns:inkscape="http://www.inkscape.org/namespaces/inkscape"
   aria-hidden="true"
   focusable="false"
   data-prefix="fab"
   data-icon="skype"
   class="svg-inline--fa fa-skype fa-w-14"
   role="img"
   viewBox="0 0 448 512"
   version="1.1"
   id="svg1203"
   sodipodi:docname="skype.svg"
   inkscape:version="0.92.3 (2405546, 2018-03-11)">
  <metadata
     id="metadata1209">
    <rdf:RDF>
      <cc:Work
         rdf:about="">
        <dc:format>image/svg+xml</dc:format>
        <dc:type
           rdf:resource="http://purl.org/dc/dcmitype/StillImage" />
      </cc:Work>
    </rdf:RDF>
  </metadata>
  <defs
     id="defs1207">
    <linearGradient
       id="linearGradient1766"
       osb:paint="solid">
      <stop
         style="stop-color:#adb2c4;stop-opacity:1;"
         offset="0"
         id="stop1764" />
    </linearGradient>
    <linearGradient
       inkscape:collect="always"
       xlink:href="#linearGradient1766"
       id="linearGradient1768"
       x1="0.08305353"
       y1="469.89505"
       x2="19.930346"
       y2="469.89505"
       gradientUnits="userSpaceOnUse"
       gradientTransform="translate(2.5887295,1.6299411)" />
  </defs>
  <sodipodi:namedview
     pagecolor="#ffffff"
     bordercolor="#666666"
     borderopacity="1"
     objecttolerance="10"
     gridtolerance="10"
     guidetolerance="10"
     inkscape:pageopacity="0"
     inkscape:pageshadow="2"
     inkscape:window-width="1366"
     inkscape:window-height="717"
     id="namedview1205"
     showgrid="false"
     inkscape:zoom="10.429825"
     inkscape:cx="8.8272079"
     inkscape:cy="47.811182"
     inkscape:window-x="0"
     inkscape:window-y="0"
     inkscape:window-maximized="1"
     inkscape:current-layer="svg1203" />
  <path
     style="opacity:1;fill:#adb2c4;fill-opacity:0;fill-rule:nonzero;stroke:none;stroke-width:0.01917578;stroke-miterlimit:4;stroke-dasharray:none;stroke-opacity:1"
     d="m 8.7918148,475.78794 c -1.2633495,-0.21319 -2.3575067,-0.68602 -3.0701566,-1.32676 -0.5498049,-0.49432 -0.7487815,-0.88048 -0.7487815,-1.45319 0,-0.8015 0.4292458,-1.24474 1.2054342,-1.24474 0.5501665,0 0.9304893,0.22463 1.6229929,0.95858 0.2109336,0.22356 0.6423886,0.53076 0.9587889,0.68266 0.4879908,0.23428 0.69165,0.27588 1.3423043,0.27416 0.874849,-0.002 1.422363,-0.19608 1.757326,-0.62192 0.379163,-0.48203 0.218258,-1.13461 -0.352539,-1.42978 -0.143799,-0.0744 -1.113677,-0.35197 -2.1552837,-0.6169 -2.2349315,-0.56847 -3.0618661,-0.91843 -3.6461431,-1.54307 -0.5650704,-0.60411 -0.7624009,-1.22006 -0.7175372,-2.23972 0.041189,-0.93616 0.2777162,-1.49466 0.8939666,-2.11091 0.9171959,-0.9172 2.4279951,-1.36786 4.3048394,-1.28411 1.686104,0.0752 2.985313,0.47007 3.743875,1.13778 0.52888,0.46554 0.725743,0.8128 0.725743,1.28019 0,1.09869 -1.141561,1.67247 -2.071986,1.04145 -0.205109,-0.13911 -0.543623,-0.39896 -0.752253,-0.57744 -0.46024,-0.39373 -1.136001,-0.60801 -1.9151981,-0.60729 -1.1869709,0.001 -1.780327,0.35249 -1.780327,1.05435 0,0.70875 0.3061663,0.85819 3.1160641,1.52099 2.887858,0.68118 4.121528,1.85134 3.944986,3.74189 -0.194247,2.08015 -2.240849,3.47856 -5.047593,3.44894 -0.5009676,-0.005 -1.1123024,-0.0436 -1.3585222,-0.0852 z"
     id="path1754"
     inkscape:connector-curvature="0" />
  <path
     style="opacity:1;fill:url(#linearGradient1768);fill-opacity:1;fill-rule:nonzero;stroke:none;stroke-width:0.01917578;stroke-miterlimit:4;stroke-dasharray:none;stroke-opacity:1"
     d="m 16.171533,481.26196 c -0.300578,-0.0961 -0.789662,-0.31197 -1.086853,-0.47969 l -0.540347,-0.30496 -0.925285,0.11048 c -2.071352,0.24732 -4.4713995,-0.34757 -6.1997305,-1.53669 -2.715597,-1.86838 -4.276596,-5.29932 -3.888801,-8.54723 l 0.109986,-0.92117 -0.332648,-0.61158 c -0.459987,-0.84569 -0.636071,-1.51929 -0.636071,-2.43327 0,-1.87011 1.03524,-3.57221 2.670131,-4.39011 0.883016,-0.44175 1.586177,-0.5832 2.603208,-0.52364 0.866261,0.0507 1.678494,0.31673 2.3402665,0.76642 0.314547,0.21374 0.397278,0.22902 0.802935,0.14828 0.248741,-0.0495 0.970002,-0.0893 1.602802,-0.0885 5.36284,0.007 9.552783,4.71575 8.961405,10.07104 l -0.114289,1.03497 0.25499,0.38531 c 0.618538,0.93468 0.879923,2.41774 0.634407,3.59955 -0.364517,1.75463 -1.841349,3.30759 -3.587646,3.77257 -0.699236,0.18619 -2.003384,0.16089 -2.66846,-0.0518 z m -1.419011,-3.89383 c 1.876452,-0.57413 2.983475,-1.74476 3.129583,-3.30939 0.110815,-1.18669 -0.34941,-2.15061 -1.341091,-2.80885 -0.718431,-0.47687 -1.478782,-0.7508 -3.218181,-1.15941 -2.160701,-0.50759 -2.501345,-0.6843 -2.501345,-1.29762 0,-0.6276 0.598328,-0.96065 1.72582,-0.96065 0.957884,0 1.271198,0.1399 2.476335,1.10567 0.349572,0.28013 0.49073,0.33252 0.896056,0.33252 0.283764,0 0.596176,-0.068 0.761614,-0.1657 0.337864,-0.19958 0.660529,-0.82632 0.658362,-1.27879 -0.0065,-1.35125 -2.267301,-2.48337 -4.964197,-2.48582 -2.306483,-0.002 -4.1501715,0.95532 -4.7124445,2.44716 -0.307237,0.81517 -0.253084,1.9862 0.127857,2.76481 0.508756,1.03986 1.375005,1.48971 4.2659615,2.21535 0.969483,0.24335 1.885046,0.50572 2.034583,0.58305 0.325444,0.16829 0.469329,0.41065 0.469329,0.79053 0,0.66152 -0.736647,1.08455 -1.888608,1.08455 -0.927446,0 -1.513642,-0.26694 -2.387555,-1.08726 -0.8153135,-0.76531 -0.9563395,-0.84097 -1.5675525,-0.84097 -0.420942,0 -0.535751,0.0446 -0.845243,0.32821 -0.347283,0.31826 -0.358138,0.34826 -0.358138,0.98976 0,0.56205 0.03987,0.7218 0.265098,1.06214 0.530813,0.80211 1.847129,1.49464 3.4007185,1.78915 0.951206,0.18031 2.831264,0.12852 3.573038,-0.0984 z"
     id="path1762"
     inkscape:connector-curvature="0" />
</svg>
