<?xml version="1.0" encoding="utf-8"?>
<!-- Generator: Adobe Illustrator 19.2.1, SVG Export Plug-In . SVG Version: 6.00 Build 0)  -->
<svg version="1.1" xmlns="http://www.w3.org/2000/svg" xmlns:xlink="http://www.w3.org/1999/xlink" x="0px" y="0px"
	 viewBox="0 0 74 74" style="enable-background:new 0 0 74 74;" xml:space="preserve">
<style type="text/css">
	.st0{fill:#2CD3B8;}
	.st1{fill:#FFFFFF;}
</style>
<g id="Слой_1">
	<circle class="st0" cx="37" cy="37" r="37"/>
</g>
<g id="Слой_2">
	<path class="st1" d="M41.8,37.5c3.5,0,6.4-2.8,6.4-6.3c0-3.4-2.9-6.2-6.4-6.2s-6.4,2.8-6.4,6.2C35.4,34.7,38.3,37.5,41.8,37.5z
		 M27.5,34.4v-4.7h-3.2v4.7h-4.8v3.1h4.8v4.7h3.2v-4.7h4.8v-3.1H27.5z M41.8,40.6c-4.3,0-12.7,2-12.7,6.2V50h25.5v-3.1
		C54.5,42.7,46.1,40.6,41.8,40.6z"/>
</g>
</svg>
