<?xml version="1.0" encoding="utf-8"?>
<!-- Generator: Adobe Illustrator 19.2.1, SVG Export Plug-In . SVG Version: 6.00 Build 0)  -->
<svg version="1.1" xmlns="http://www.w3.org/2000/svg" xmlns:xlink="http://www.w3.org/1999/xlink" x="0px" y="0px"
	 viewBox="0 0 74 74" style="enable-background:new 0 0 74 74;" xml:space="preserve">
<style type="text/css">
	.st0{fill:#2CD3B8;}
	.st1{fill:#FFFFFF;}
</style>
<g id="Слой_1">
	<circle class="st0" cx="37" cy="37" r="37"/>
</g>
<g id="Слой_2">
	<g>
		<g>
			<path class="st1" d="M51.5,34l-0.6,0v9.4h0.6c0.9,0,1.6-0.7,1.6-1.6v-6.3C53,34.7,52.3,34,51.5,34z M21,35.6v6.1
				c0,0.9,0.7,1.7,1.6,1.7h0.6V34l-0.6,0C21.7,34,21,34.7,21,35.6z M49.4,35.3c0-0.7-0.1-1.4-0.2-2.1c0-0.2-0.1-0.5-0.2-0.7v-1.8
				c0-6.8-5.4-12.3-12-12.3S25,24,25,30.8v1.2c-0.1,0.2-0.1,0.3-0.2,0.5c-0.2,0.9-0.4,1.9-0.4,2.8v11.6c0,0.5,0.4,0.8,0.8,0.8h2.5
				c0.8,4.4,4.7,7.8,9.3,7.8c3.6,0,6.8-2.1,8.4-5.2c2.7-0.2,4.9-2.5,4.9-5.3h-0.9V35.3z M43.9,47.9h-5.9c-0.7,0-1.2,0.6-1.2,1.2
				c0,0.7,0.5,1.2,1.2,1.2h4.6C41.3,52,39.3,53,37.1,53c-3.9,0-7-3.2-7-7.2V38c0.9-0.6,2.5-1.7,3.6-3.2c1.7,1.4,5.1,3.5,10.5,3.7
				v7.3h0C44.1,46.5,44,47.2,43.9,47.9z M38.8,24.4h-3.6c-2.7,0-5.2,1-7,2.7C29.5,23.5,33,21,37,21c4.1,0,7.7,2.7,9,6.4
				C44.2,25.6,41.6,24.4,38.8,24.4z M34.6,40.3h-1.9c-0.7,0-1.2,0.6-1.2,1.2c0,0.7,0.5,1.2,1.2,1.2h1.9c0.7,0,1.2-0.6,1.2-1.2
				C35.8,40.9,35.2,40.3,34.6,40.3z M41.4,40.3h-1.9c-0.7,0-1.2,0.6-1.2,1.2c0,0.7,0.5,1.2,1.2,1.2h1.9c0.7,0,1.2-0.6,1.2-1.2
				C42.6,40.9,42,40.3,41.4,40.3z"/>
		</g>
	</g>
</g>
</svg>
