<?xml version="1.0" encoding="utf-8"?>
<!-- Generator: Adobe Illustrator 19.2.1, SVG Export Plug-In . SVG Version: 6.00 Build 0)  -->
<svg version="1.1" xmlns="http://www.w3.org/2000/svg" xmlns:xlink="http://www.w3.org/1999/xlink" x="0px" y="0px"
	 viewBox="0 0 74 74" style="enable-background:new 0 0 74 74;" xml:space="preserve">
<style type="text/css">
	.st0{fill:#2CD3B8;}
	.st1{fill:#FFFFFF;}
</style>
<g id="Слой_1">
	<circle class="st0" cx="37" cy="37" r="37"/>
</g>
<g id="Слой_4">
	<path class="st1" d="M54.9,35c-0.1-0.5-0.6-0.9-1.2-0.9c-1.6,0-3.1-1-3.7-2.5c-0.6-1.5-0.2-3.3,1-4.5c0.4-0.4,0.4-0.9,0.1-1.4
		c-0.8-1.1-1.8-2-2.9-2.9c-0.4-0.3-1-0.3-1.4,0.1c-1.1,1.2-3,1.6-4.5,1c-1.5-0.7-2.5-2.2-2.4-3.9c0-0.5-0.4-1-0.9-1.1
		c-1.3-0.2-2.7-0.2-4,0c-0.5,0.1-0.9,0.5-0.9,1c0.1,1.7-0.9,3.2-2.5,3.8c-1.5,0.6-3.4,0.2-4.5-1c-0.4-0.4-0.9-0.4-1.4-0.1
		c-1.1,0.8-2.1,1.8-2.9,2.9c-0.3,0.4-0.3,1,0.1,1.4c1.3,1.1,1.7,2.9,1,4.5c-0.6,1.5-2.2,2.4-3.9,2.4c-0.6,0-1,0.4-1,0.9
		c-0.2,1.4-0.2,2.7,0,4.1c0.1,0.5,0.7,0.9,1.2,0.9c1.6,0,3.1,0.9,3.7,2.5c0.6,1.5,0.2,3.3-1,4.5c-0.4,0.4-0.4,0.9-0.1,1.4
		c0.8,1.1,1.8,2,2.8,2.9c0.4,0.3,1,0.3,1.4-0.1c1.1-1.2,3-1.6,4.5-1c1.6,0.6,2.5,2.2,2.4,3.9c0,0.5,0.4,1,0.9,1.1
		C35.6,55,36.3,55,37,55c0.7,0,1.3,0,2-0.1c0.5-0.1,0.9-0.5,0.9-1c-0.1-1.7,0.9-3.2,2.5-3.8c1.5-0.6,3.4-0.2,4.5,1
		c0.4,0.4,0.9,0.4,1.4,0.1c1.1-0.8,2.1-1.8,2.9-2.9c0.3-0.4,0.3-1-0.1-1.4c-1.3-1.1-1.7-2.9-1-4.5C50.5,41,52,40,53.6,40l0.2,0
		c0.5,0,1-0.4,1.1-0.9C55,37.7,55,36.4,54.9,35z M37,47.4c-5.7,0-10.4-4.6-10.4-10.4S31.3,26.6,37,26.6S47.4,31.3,47.4,37
		c0,1.9-0.5,3.8-1.5,5.3l-4.5-4.5c0.3-0.8,0.5-1.6,0.5-2.5c0-1.7-0.7-3.3-1.9-4.5c-1.2-1.2-2.8-1.9-4.5-1.9c-0.6,0-1.1,0.1-1.7,0.2
		c-0.2,0.1-0.4,0.3-0.5,0.5c-0.1,0.2,0,0.5,0.2,0.7c0,0,2.2,2.3,3,3c0.1,0.1,0.1,0.3,0.1,0.3l0,0c-0.1,0.8-0.2,1.8-0.3,2.2
		c0,0,0,0,0,0c0,0,0,0,0,0.1c-0.4,0.1-1.4,0.3-2.2,0.3l0,0l0,0c0,0,0,0,0,0c-0.1,0-0.2,0-0.3-0.1c-0.8-0.8-2.9-2.9-2.9-2.9
		c-0.2-0.2-0.4-0.2-0.5-0.2c-0.3,0-0.6,0.2-0.7,0.5c-0.6,2.2,0,4.6,1.6,6.2c1.2,1.2,2.8,1.9,4.5,1.9c0.9,0,1.7-0.2,2.5-0.5l4.6,4.6
		C41,46.8,39.1,47.4,37,47.4z"/>
</g>
</svg>
