<?xml version="1.0" encoding="utf-8"?>
<!-- Generator: Adobe Illustrator 19.2.1, SVG Export Plug-In . SVG Version: 6.00 Build 0)  -->
<svg version="1.1" xmlns="http://www.w3.org/2000/svg" xmlns:xlink="http://www.w3.org/1999/xlink" x="0px" y="0px"
	 viewBox="0 0 74 74" style="enable-background:new 0 0 74 74;" xml:space="preserve">
<style type="text/css">
	.st0{fill:#2CD3B8;}
	.st1{fill:#FFFFFF;}
</style>
<g id="Слой_1">
	<circle class="st0" cx="37" cy="37" r="37"/>
</g>
<g id="Слой_2">
	<g>
		<g>
			<path class="st1" d="M41.6,49h-3.4v-3h-2.4v3h-3.4c-0.7,0-1.2,0.6-1.2,1.2c0,0.7,0.5,1.2,1.2,1.2h9.2c0.7,0,1.2-0.6,1.2-1.2
				C42.8,49.6,42.3,49,41.6,49z M21,42v1.5c0,0.5,0.4,1,1,1H52c0.5,0,1-0.4,1-1V42H21z M37,26.7c2.6,0,5,0.7,7.1,2l0.8-1.1
				c0.3-0.4,0.8-0.4,1.1-0.2c0.4,0.3,0.4,0.8,0.2,1.1l-0.8,1.1c3.2,2.5,5.2,6.3,5.3,10.7H53V23.5c0-0.5-0.4-1-1-1H22
				c-0.5,0-1,0.4-1,1v16.9h2.3C23.4,32.8,29.5,26.7,37,26.7z M44,39.8c-0.1-0.1-0.1-0.2-0.1-0.3c-0.3-1.8-1.2-3.3-2.5-4.3L39,38.5
				c0.4,0.3,0.7,0.8,0.9,1.3H44z M37,37.8c0.2,0,0.3,0,0.5,0l2.6-3.5c-0.9-0.5-2-0.7-3.1-0.7c-2,0-3.8,0.8-5.1,2.2c0,0,0,0,0,0
				c0,0.1-0.1,0.1-0.1,0.2c-0.8,1-1.4,2.2-1.6,3.5c0,0.1-0.1,0.2-0.1,0.3h4.1C34.5,38.6,35.7,37.8,37,37.8z M49.1,39.8
				c-0.2-3.6-2-6.7-4.6-8.8l-2.1,2.9c0.1,0.1,0.1,0.1,0.2,0.2c1.5,1.3,2.6,3.2,2.9,5.2c0,0.2,0,0.4-0.1,0.6H49.1z M27.2,33.4
				C27.2,33.4,27.2,33.4,27.2,33.4c-1.3,1.8-2.2,4-2.3,6.4h3.7c-0.1-0.2-0.2-0.4-0.1-0.6c0.2-1.3,0.8-2.6,1.6-3.7L27.2,33.4z
				 M31.4,34c1.4-1.2,3-1.9,4.8-2v-3.6c-3.1,0.2-5.9,1.6-7.9,3.7l2.9,2.1C31.2,34.2,31.3,34.1,31.4,34z M43.1,30.1
				c-1.6-0.9-3.4-1.5-5.3-1.6V32c1.1,0.1,2.2,0.4,3.2,1L43.1,30.1z"/>
		</g>
	</g>
</g>
</svg>
