<?xml version="1.0" encoding="UTF-8" standalone="no"?>
<svg
   xmlns:osb="http://www.openswatchbook.org/uri/2009/osb"
   xmlns:dc="http://purl.org/dc/elements/1.1/"
   xmlns:cc="http://creativecommons.org/ns#"
   xmlns:rdf="http://www.w3.org/1999/02/22-rdf-syntax-ns#"
   xmlns:svg="http://www.w3.org/2000/svg"
   xmlns="http://www.w3.org/2000/svg"
   xmlns:xlink="http://www.w3.org/1999/xlink"
   xmlns:sodipodi="http://sodipodi.sourceforge.net/DTD/sodipodi-0.dtd"
   xmlns:inkscape="http://www.inkscape.org/namespaces/inkscape"
   aria-hidden="true"
   focusable="false"
   data-prefix="fab"
   data-icon="twitter-square"
   class="svg-inline--fa fa-twitter-square fa-w-14"
   role="img"
   viewBox="0 0 448 512"
   version="1.1"
   id="svg1115"
   sodipodi:docname="twitter.svg"
   inkscape:version="0.92.3 (2405546, 2018-03-11)">
  <metadata
     id="metadata1121">
    <rdf:RDF>
      <cc:Work
         rdf:about="">
        <dc:format>image/svg+xml</dc:format>
        <dc:type
           rdf:resource="http://purl.org/dc/dcmitype/StillImage" />
      </cc:Work>
    </rdf:RDF>
  </metadata>
  <defs
     id="defs1119">
    <linearGradient
       id="linearGradient1141"
       osb:paint="solid">
      <stop
         style="stop-color:#adb2c4;stop-opacity:1;"
         offset="0"
         id="stop1139" />
    </linearGradient>
    <linearGradient
       id="linearGradient1129"
       osb:paint="solid">
      <stop
         style="stop-color:#adb2c4;stop-opacity:1;"
         offset="0"
         id="stop1127" />
    </linearGradient>
    <linearGradient
       inkscape:collect="always"
       xlink:href="#linearGradient1141"
       id="linearGradient1143"
       x1="3.0462826"
       y1="469.99078"
       x2="16.941358"
       y2="469.99078"
       gradientUnits="userSpaceOnUse" />
  </defs>
  <sodipodi:namedview
     pagecolor="#ffffff"
     bordercolor="#666666"
     borderopacity="1"
     objecttolerance="10"
     gridtolerance="10"
     guidetolerance="10"
     inkscape:pageopacity="0"
     inkscape:pageshadow="2"
     inkscape:window-width="1366"
     inkscape:window-height="717"
     id="namedview1117"
     showgrid="false"
     inkscape:zoom="16.25"
     inkscape:cx="18.307821"
     inkscape:cy="49.850807"
     inkscape:window-x="0"
     inkscape:window-y="0"
     inkscape:window-maximized="1"
     inkscape:current-layer="svg1115" />
  <path
     d="M 17.857143,460 H 2.1428571 C 0.95982143,460 0,460.95982 0,462.14286 v 15.71428 C 0,479.04018 0.95982143,480 2.1428571,480 H 17.857143 C 19.040179,480 20,479.04018 20,477.85714 V 462.14286 C 20,460.95982 19.040179,460 17.857143,460 Z m -2.183036,7.08929 c 0.0089,0.125 0.0089,0.25446 0.0089,0.37946 0,3.87054 -2.946429,8.33036 -8.3303574,8.33036 -1.6607143,0 -3.2008929,-0.48215 -4.4955357,-1.3125 0.2366071,0.0268 0.4642857,0.0357 0.7053571,0.0357 1.3705357,0 2.6294643,-0.46428 3.6339286,-1.25 -1.2857143,-0.0268 -2.3660715,-0.87053 -2.7366072,-2.03125 0.4508929,0.067 0.8571429,0.067 1.3214286,-0.0536 C 4.4419643,470.91518 3.4375,469.73661 3.4375,468.3125 v -0.0357 c 0.3883929,0.21875 0.84375,0.35267 1.3214286,0.37053 a 2.9217411,2.9217411 0 0 1 -1.3035715,-2.4375 c 0,-0.54464 0.1428572,-1.04464 0.3973215,-1.47768 1.4419643,1.77679 3.6071428,2.9375 6.0357143,3.0625 -0.4151786,-1.9866 1.0714281,-3.59821 2.8571431,-3.59821 0.84375,0 1.602678,0.35268 2.138393,0.92411 0.660714,-0.125 1.294642,-0.37054 1.857142,-0.70536 -0.21875,0.67857 -0.678571,1.25 -1.285714,1.61161 0.589286,-0.0625 1.160714,-0.22768 1.6875,-0.45536 -0.397321,0.58482 -0.897321,1.10268 -1.46875,1.51786 z"
     id="path1113"
     inkscape:connector-curvature="0"
     style="fill:currentColor;stroke-width:0.04464285" />
  <path
     style="opacity:1;fill:#adb2c4;fill-opacity:0;fill-rule:nonzero;stroke:none;stroke-width:0.19692308;stroke-miterlimit:4;stroke-dasharray:none;stroke-opacity:1"
     d="m 36.041483,477.94952 c -2.921799,-0.78571 -7.574107,-2.6356 -10.338462,-4.11085 C 19.265955,470.40342 9.6039621,460.74803 6.1772789,454.32629 0.15186777,443.03443 0.49230769,454.91104 0.49230769,256 0.49230769,57.088961 0.15186777,68.965572 6.1772789,57.673712 9.7345556,51.007233 19.520227,41.238017 25.857312,38.026774 37.419577,32.16773 25.799194,32.492308 224,32.492308 c 198.91104,0 187.03443,-0.34044 198.32629,5.684971 6.4109,3.420902 16.07553,13.085527 19.49643,19.496433 6.02541,11.29186 5.68497,-0.584751 5.68497,198.326288 0,198.91104 0.34044,187.03443 -5.68497,198.32629 -3.4209,6.4109 -13.08553,16.07553 -19.49643,19.49643 -11.29941,6.02944 0.66707,5.69111 -198.77931,5.62017 C 67.580166,479.38742 40.589143,479.17245 36.041483,477.94952 Z M 201.07064,383.15539 c 36.58905,-7.06526 66.15462,-22.26017 92.20884,-47.38975 16.43438,-15.85114 27.257,-30.67106 37.88558,-51.87849 12.68758,-25.31582 18.96131,-49.85921 20.49601,-80.18234 0.63914,-12.62833 0.76776,-13.23317 3.21007,-15.09521 8.16254,-6.2232 30.62644,-30.39408 29.39348,-31.62703 -0.17374,-0.17374 -4.73513,1.18219 -10.13641,3.01317 -8.68848,2.94531 -24.10676,6.72315 -24.76251,6.0674 -0.13308,-0.13309 2.16278,-2.12011 5.10191,-4.4156 2.93914,-2.2955 7.35556,-6.78795 9.81429,-9.98324 4.19333,-5.44956 11.77026,-19.63266 10.9346,-20.46831 -0.2085,-0.2085 -4.52058,1.62415 -9.58241,4.07255 -9.57624,4.63203 -22.1299,9.07328 -28.54714,10.09944 -3.4126,0.54569 -4.16027,0.20885 -8.80411,-3.96636 -5.83112,-5.24267 -18.40049,-11.71788 -26.95125,-13.88414 -7.59069,-1.92304 -23.99557,-1.92304 -31.58626,0 -3.22763,0.81769 -9.63456,3.32231 -14.23764,5.56582 -6.6163,3.22475 -10.03379,5.74898 -16.31652,12.05175 -4.37101,4.38495 -9.3187,10.40957 -10.99486,13.38803 -6.5977,11.72382 -9.81856,27.28233 -8.25517,39.87692 0.47056,3.79077 0.67667,7.0904 0.45802,7.33251 -0.98388,1.08952 -23.37965,-2.29283 -35.12437,-5.3047 -35.3359,-9.06171 -65.58773,-27.02067 -90.490449,-53.71951 -4.730151,-5.07131 -8.813774,-9.00707 -9.074718,-8.74613 -1.315723,1.31572 -5.71179,12.65789 -6.963887,17.96732 -1.625539,6.89299 -1.890595,20.69656 -0.534701,27.84616 2.334372,12.3091 9.013735,24.56452 18.711739,34.33266 l 6.338156,6.384 h -3.03444 c -3.662065,0 -15.085236,-3.42318 -20.333934,-6.09345 l -3.799752,-1.93313 0.709641,7.2133 c 0.926497,9.41757 4.446726,20.41178 9.080053,28.3584 7.183735,12.32082 21.725742,24.24835 34.486732,28.28644 2.84308,0.89966 5.16923,1.95294 5.16923,2.34063 0,1.17942 -13.3752,2.13021 -19.67728,1.39878 -7.044619,-0.81761 -7.137734,-0.58117 -3.1012,7.87518 9.04082,18.94016 26.37246,32.27917 47.39387,36.47593 4.60307,0.91896 8.49899,1.78373 8.65759,1.92172 0.68933,0.59972 -16.57673,10.94057 -23.8327,14.27371 -18.14331,8.3344 -30.01411,10.92423 -53.676106,11.71042 l -18.143519,0.60284 9.526074,5.27197 c 21.603303,11.95582 43.856121,19.33873 68.607121,22.76207 11.10298,1.53566 48.30105,0.41451 59.77833,-1.80173 z"
     id="path1123"
     inkscape:connector-curvature="0" />
  <path
     style="opacity:1;fill:#adb2c4;fill-opacity:0;fill-rule:nonzero;stroke:none;stroke-width:0.01230769;stroke-miterlimit:4;stroke-dasharray:none;stroke-opacity:1"
     d="m 5.9952657,475.658 c -0.5905818,-0.0995 -1.0645458,-0.23237 -1.6874446,-0.47309 -0.4330135,-0.16733 -1.2615385,-0.58361 -1.2615385,-0.63384 0,-0.0101 0.2598017,-0.0197 0.5773371,-0.0214 0.9817383,-0.005 1.8000462,-0.20717 2.6849078,-0.66221 0.2880808,-0.14815 0.6203885,-0.35192 0.7384615,-0.45283 l 0.2146782,-0.18346 -0.2153846,-0.003 c -0.5627705,-0.008 -1.2949879,-0.33145 -1.7768979,-0.78385 -0.2902697,-0.2725 -0.7463913,-0.93968 -0.7460189,-1.09123 9.85e-5,-0.0407 0.2020399,-0.0659 0.5384615,-0.0671 0.2960658,-0.001 0.5936861,-0.0243 0.6613784,-0.0516 0.1008355,-0.0407 0.059266,-0.0696 -0.2300339,-0.16035 -0.9933434,-0.31142 -1.7987259,-1.23248 -1.9743837,-2.25796 -0.036343,-0.21217 -0.052028,-0.39981 -0.034855,-0.41699 0.017173,-0.0172 0.1715577,0.0221 0.3430768,0.0873 0.171519,0.0652 0.4600429,0.13816 0.6411641,0.16218 l 0.3293114,0.0437 -0.4065066,-0.40055 C 3.5121822,467.4254 3.2443595,466.14045 3.7190178,465.0674 l 0.1158826,-0.26197 0.6056911,0.59787 c 1.383472,1.3656 3.16925,2.20927 5.0433465,2.38267 l 0.4238831,0.0392 v -0.73375 c 0,-0.72397 0.00308,-0.73999 0.2308789,-1.20065 0.51646,-1.04442 1.483616,-1.64929 2.637106,-1.64929 0.676518,0 1.476024,0.31521 1.965674,0.77499 l 0.156735,0.14717 0.447964,-0.12414 c 0.24638,-0.0683 0.63022,-0.20677 0.852977,-0.30777 0.222757,-0.10101 0.417234,-0.17142 0.432172,-0.15649 0.07538,0.0754 -0.367129,0.70613 -0.746391,1.0639 l -0.430128,0.40576 0.31948,-0.0424 c 0.175714,-0.0233 0.501856,-0.0987 0.724761,-0.16756 0.222904,-0.0688 0.420391,-0.11006 0.438859,-0.0916 0.05342,0.0534 -0.525644,0.69978 -0.907121,1.01253 l -0.348345,0.28559 -0.03842,0.70769 c -0.116718,2.14992 -0.942119,4.06952 -2.398528,5.57818 -1.219359,1.2631 -2.725756,2.0426 -4.5050684,2.3312 -0.6719303,0.10898 -2.0966245,0.10869 -2.7451599,-5.5e-4 z"
     id="path1133"
     inkscape:connector-curvature="0" />
  <path
     style="opacity:1;fill:#adb2c4;fill-opacity:0;fill-rule:nonzero;stroke:none;stroke-width:0.01230769;stroke-miterlimit:4;stroke-dasharray:none;stroke-opacity:1"
     d="m 5.9952657,475.658 c -0.5905818,-0.0995 -1.0645458,-0.23237 -1.6874446,-0.47309 -0.4330135,-0.16733 -1.2615385,-0.58361 -1.2615385,-0.63384 0,-0.0101 0.2598017,-0.0197 0.5773371,-0.0214 0.9817383,-0.005 1.8000462,-0.20717 2.6849078,-0.66221 0.2880808,-0.14815 0.6203885,-0.35192 0.7384615,-0.45283 l 0.2146782,-0.18346 -0.2153846,-0.003 c -0.5627705,-0.008 -1.2949879,-0.33145 -1.7768979,-0.78385 -0.2902697,-0.2725 -0.7463913,-0.93968 -0.7460189,-1.09123 9.85e-5,-0.0407 0.2020399,-0.0659 0.5384615,-0.0671 0.2960658,-0.001 0.5936861,-0.0243 0.6613784,-0.0516 0.1008355,-0.0407 0.059266,-0.0696 -0.2300339,-0.16035 -0.9933434,-0.31142 -1.7987259,-1.23248 -1.9743837,-2.25796 -0.036343,-0.21217 -0.052028,-0.39981 -0.034855,-0.41699 0.017173,-0.0172 0.1715577,0.0221 0.3430768,0.0873 0.171519,0.0652 0.4600429,0.13816 0.6411641,0.16218 l 0.3293114,0.0437 -0.4065066,-0.40055 C 3.5121822,467.4254 3.2443595,466.14045 3.7190178,465.0674 l 0.1158826,-0.26197 0.6056911,0.59787 c 1.383472,1.3656 3.16925,2.20927 5.0433465,2.38267 l 0.4238831,0.0392 v -0.73375 c 0,-0.72397 0.00308,-0.73999 0.2308789,-1.20065 0.51646,-1.04442 1.483616,-1.64929 2.637106,-1.64929 0.676518,0 1.476024,0.31521 1.965674,0.77499 l 0.156735,0.14717 0.447964,-0.12414 c 0.24638,-0.0683 0.63022,-0.20677 0.852977,-0.30777 0.222757,-0.10101 0.417234,-0.17142 0.432172,-0.15649 0.07538,0.0754 -0.367129,0.70613 -0.746391,1.0639 l -0.430128,0.40576 0.31948,-0.0424 c 0.175714,-0.0233 0.501856,-0.0987 0.724761,-0.16756 0.222904,-0.0688 0.420391,-0.11006 0.438859,-0.0916 0.05342,0.0534 -0.525644,0.69978 -0.907121,1.01253 l -0.348345,0.28559 -0.03842,0.70769 c -0.116718,2.14992 -0.942119,4.06952 -2.398528,5.57818 -1.219359,1.2631 -2.725756,2.0426 -4.5050684,2.3312 -0.6719303,0.10898 -2.0966245,0.10869 -2.7451599,-5.5e-4 z"
     id="path1135"
     inkscape:connector-curvature="0" />
  <path
     style="opacity:1;fill:url(#linearGradient1143);fill-opacity:1;fill-rule:nonzero;stroke:none;stroke-width:0.01230769;stroke-miterlimit:4;stroke-dasharray:none;stroke-opacity:1"
     d="m 5.9952657,475.658 c -0.5905818,-0.0995 -1.0645458,-0.23237 -1.6874446,-0.47309 -0.4330135,-0.16733 -1.2615385,-0.58361 -1.2615385,-0.63384 0,-0.0101 0.2598017,-0.0197 0.5773371,-0.0214 0.9817383,-0.005 1.8000462,-0.20717 2.6849078,-0.66221 0.2880808,-0.14815 0.6203885,-0.35192 0.7384615,-0.45283 l 0.2146782,-0.18346 -0.2153846,-0.003 c -0.5627705,-0.008 -1.2949879,-0.33145 -1.7768979,-0.78385 -0.2902697,-0.2725 -0.7463913,-0.93968 -0.7460189,-1.09123 9.85e-5,-0.0407 0.2020399,-0.0659 0.5384615,-0.0671 0.2960658,-0.001 0.5936861,-0.0243 0.6613784,-0.0516 0.1008355,-0.0407 0.059266,-0.0696 -0.2300339,-0.16035 -0.9933434,-0.31142 -1.7987259,-1.23248 -1.9743837,-2.25796 -0.036343,-0.21217 -0.052028,-0.39981 -0.034855,-0.41699 0.017173,-0.0172 0.1715577,0.0221 0.3430768,0.0873 0.171519,0.0652 0.4600429,0.13816 0.6411641,0.16218 l 0.3293114,0.0437 -0.4065066,-0.40055 C 3.5121822,467.4254 3.2443595,466.14045 3.7190178,465.0674 l 0.1158826,-0.26197 0.6056911,0.59787 c 1.383472,1.3656 3.16925,2.20927 5.0433465,2.38267 l 0.4238831,0.0392 v -0.73375 c 0,-0.72397 0.00308,-0.73999 0.2308789,-1.20065 0.51646,-1.04442 1.483616,-1.64929 2.637106,-1.64929 0.676518,0 1.476024,0.31521 1.965674,0.77499 l 0.156735,0.14717 0.447964,-0.12414 c 0.24638,-0.0683 0.63022,-0.20677 0.852977,-0.30777 0.222757,-0.10101 0.417234,-0.17142 0.432172,-0.15649 0.07538,0.0754 -0.367129,0.70613 -0.746391,1.0639 l -0.430128,0.40576 0.31948,-0.0424 c 0.175714,-0.0233 0.501856,-0.0987 0.724761,-0.16756 0.222904,-0.0688 0.420391,-0.11006 0.438859,-0.0916 0.05342,0.0534 -0.525644,0.69978 -0.907121,1.01253 l -0.348345,0.28559 -0.03842,0.70769 c -0.116718,2.14992 -0.942119,4.06952 -2.398528,5.57818 -1.219359,1.2631 -2.725756,2.0426 -4.5050684,2.3312 -0.6719303,0.10898 -2.0966245,0.10869 -2.7451599,-5.5e-4 z"
     id="path1137"
     inkscape:connector-curvature="0" />
</svg>
