<?xml version="1.0" encoding="UTF-8" standalone="no"?>
<svg
   xmlns:osb="http://www.openswatchbook.org/uri/2009/osb"
   xmlns:dc="http://purl.org/dc/elements/1.1/"
   xmlns:cc="http://creativecommons.org/ns#"
   xmlns:rdf="http://www.w3.org/1999/02/22-rdf-syntax-ns#"
   xmlns:svg="http://www.w3.org/2000/svg"
   xmlns="http://www.w3.org/2000/svg"
   xmlns:xlink="http://www.w3.org/1999/xlink"
   xmlns:sodipodi="http://sodipodi.sourceforge.net/DTD/sodipodi-0.dtd"
   xmlns:inkscape="http://www.inkscape.org/namespaces/inkscape"
   aria-hidden="true"
   focusable="false"
   data-prefix="fab"
   data-icon="vk"
   class="svg-inline--fa fa-vk fa-w-18"
   role="img"
   viewBox="0 0 576 512"
   version="1.1"
   id="svg87"
   sodipodi:docname="vk.svg"
   inkscape:version="0.92.3 (2405546, 2018-03-11)">
  <metadata
     id="metadata93">
    <rdf:RDF>
      <cc:Work
         rdf:about="">
        <dc:format>image/svg+xml</dc:format>
        <dc:type
           rdf:resource="http://purl.org/dc/dcmitype/StillImage" />
        <dc:title></dc:title>
      </cc:Work>
    </rdf:RDF>
  </metadata>
  <defs
     id="defs91">
    <linearGradient
       id="linearGradient950"
       osb:paint="solid">
      <stop
         style="stop-color:#adb2c4;stop-opacity:1;"
         offset="0"
         id="stop948" />
    </linearGradient>
    <linearGradient
       id="linearGradient910"
       osb:paint="solid">
      <stop
         style="stop-color:#69b1c3;stop-opacity:1;"
         offset="0"
         id="stop908" />
    </linearGradient>
    <linearGradient
       id="linearGradient902"
       osb:paint="solid">
      <stop
         style="stop-color:#000000;stop-opacity:1;"
         offset="0"
         id="stop900" />
    </linearGradient>
    <linearGradient
       inkscape:collect="always"
       xlink:href="#linearGradient950"
       id="linearGradient952"
       x1="23.240092"
       y1="212.84513"
       x2="557.96235"
       y2="212.84513"
       gradientUnits="userSpaceOnUse"
       gradientTransform="matrix(0.04862337,0,0,0.06299192,20.341147,368.4063)" />
  </defs>
  <sodipodi:namedview
     pagecolor="#ffffff"
     bordercolor="#666666"
     borderopacity="1"
     objecttolerance="10"
     gridtolerance="10"
     guidetolerance="10"
     inkscape:pageopacity="0"
     inkscape:pageshadow="2"
     inkscape:window-width="1366"
     inkscape:window-height="717"
     id="namedview89"
     showgrid="false"
     inkscape:zoom="8.125"
     inkscape:cx="24.021161"
     inkscape:cy="117.22601"
     inkscape:window-x="0"
     inkscape:window-y="0"
     inkscape:window-maximized="1"
     inkscape:current-layer="svg87" />
  <path
     style="opacity:1;fill:#adb2c4;fill-opacity:0;fill-rule:nonzero;stroke:none;stroke-width:1.39464927;stroke-miterlimit:4;stroke-dasharray:none;stroke-opacity:1"
     d="m 466.41744,368.94959 c -2.44705,-1.49206 -18.73879,-16.48889 -36.20387,-33.32627 -50.11778,-48.31659 -62.3615,-57.26732 -78.27626,-57.22374 -13.94415,0.0381 -14.11201,0.50961 -15.83082,44.46102 l -1.39158,35.58391 -4.27011,4.5391 c -2.34856,2.49649 -6.49103,5.15607 -9.20547,5.91017 -7.57704,2.10495 -48.31004,1.69946 -60.33127,-0.60057 -28.42149,-5.43793 -62.7875,-22.48834 -90.11579,-44.71019 C 158.00264,313.1832 131.14986,285.32072 121.00534,271.92405 109.81904,257.1516 85.694006,220.30997 75.081464,201.79316 38.93355,138.72209 16.001149,73.433387 25.321623,60.126548 28.866721,55.06521 35.936401,54.208708 74.23562,54.200542 l 36.42294,-0.0078 6.04698,6.762428 c 4.32739,4.839386 8.19161,11.867938 13.58865,24.716101 36.77798,87.553529 72.19601,142.773639 93.82597,146.283699 7.91549,1.2845 8.40658,-0.44283 9.87473,-34.73297 1.5564,-36.35168 -0.41969,-87.43743 -3.73176,-96.47269 -1.14124,-3.113303 -5.27668,-11.29167 -9.18985,-18.174149 -8.31314,-14.621118 -8.8977,-19.19104 -3.1582,-24.689829 l 3.95666,-3.790724 52.55962,0.397181 52.55961,0.397182 3.20333,3.725519 c 3.03237,3.52669 3.24661,5.161612 4.0143,30.634042 3.01502,100.039278 3.49302,110.988778 4.96539,113.739918 7.60325,14.20682 36.33517,-10.31086 64.38715,-54.9432 4.54806,-7.23621 16.75396,-28.65023 27.12423,-47.58669 10.37028,-18.936468 20.38072,-36.446817 22.24543,-38.911892 5.22463,-6.906815 10.08418,-7.574618 51.5882,-7.08931 l 36.91196,0.431613 3.3585,3.906903 c 4.32535,5.031632 4.21031,8.855893 -0.68987,22.933702 -4.96336,14.25931 -17.71116,37.669224 -37.98211,69.749934 -24.27441,38.41657 -41.47362,67.062 -42.34159,70.52031 -1.49129,5.94177 3.81301,12.97575 39.88966,52.89727 31.19626,34.521 47.69447,56.32403 52.12747,68.88848 3.32942,9.43657 2.78583,18.40475 -1.35112,22.29121 -4.91473,4.61716 -12.22124,5.41951 -50.15632,5.50782 -30.75158,0.0716 -33.77407,-0.13869 -37.86814,-2.63504 z"
     id="path934"
     inkscape:connector-curvature="0" />
  <path
     style="opacity:1;fill:#adb2c4;fill-opacity:0;fill-rule:nonzero;stroke:none;stroke-width:1.39464927;stroke-miterlimit:4;stroke-dasharray:none;stroke-opacity:1"
     d="m 466.41744,368.94959 c -2.44705,-1.49206 -18.73879,-16.48889 -36.20387,-33.32627 -50.11778,-48.31659 -62.3615,-57.26732 -78.27626,-57.22374 -13.94415,0.0381 -14.11201,0.50961 -15.83082,44.46102 l -1.39158,35.58391 -4.27011,4.5391 c -2.34856,2.49649 -6.49103,5.15607 -9.20547,5.91017 -7.57704,2.10495 -48.31004,1.69946 -60.33127,-0.60057 -28.42149,-5.43793 -62.7875,-22.48834 -90.11579,-44.71019 C 158.00264,313.1832 131.14986,285.32072 121.00534,271.92405 109.81904,257.1516 85.694006,220.30997 75.081464,201.79316 38.93355,138.72209 16.001149,73.433387 25.321623,60.126548 28.866721,55.06521 35.936401,54.208708 74.23562,54.200542 l 36.42294,-0.0078 6.04698,6.762428 c 4.32739,4.839386 8.19161,11.867938 13.58865,24.716101 36.77798,87.553529 72.19601,142.773639 93.82597,146.283699 7.91549,1.2845 8.40658,-0.44283 9.87473,-34.73297 1.5564,-36.35168 -0.41969,-87.43743 -3.73176,-96.47269 -1.14124,-3.113303 -5.27668,-11.29167 -9.18985,-18.174149 -8.31314,-14.621118 -8.8977,-19.19104 -3.1582,-24.689829 l 3.95666,-3.790724 52.55962,0.397181 52.55961,0.397182 3.20333,3.725519 c 3.03237,3.52669 3.24661,5.161612 4.0143,30.634042 3.01502,100.039278 3.49302,110.988778 4.96539,113.739918 7.60325,14.20682 36.33517,-10.31086 64.38715,-54.9432 4.54806,-7.23621 16.75396,-28.65023 27.12423,-47.58669 10.37028,-18.936468 20.38072,-36.446817 22.24543,-38.911892 5.22463,-6.906815 10.08418,-7.574618 51.5882,-7.08931 l 36.91196,0.431613 3.3585,3.906903 c 4.32535,5.031632 4.21031,8.855893 -0.68987,22.933702 -4.96336,14.25931 -17.71116,37.669224 -37.98211,69.749934 -24.27441,38.41657 -41.47362,67.062 -42.34159,70.52031 -1.49129,5.94177 3.81301,12.97575 39.88966,52.89727 31.19626,34.521 47.69447,56.32403 52.12747,68.88848 3.32942,9.43657 2.78583,18.40475 -1.35112,22.29121 -4.91473,4.61716 -12.22124,5.41951 -50.15632,5.50782 -30.75158,0.0716 -33.77407,-0.13869 -37.86814,-2.63504 z"
     id="path936"
     inkscape:connector-curvature="0" />
  <path
     style="opacity:1;fill:#adb2c4;fill-opacity:0;fill-rule:nonzero;stroke:none;stroke-width:1.39464927;stroke-miterlimit:4;stroke-dasharray:none;stroke-opacity:1"
     d="m 466.41744,368.94959 c -2.44705,-1.49206 -18.73879,-16.48889 -36.20387,-33.32627 -50.11778,-48.31659 -62.3615,-57.26732 -78.27626,-57.22374 -13.94415,0.0381 -14.11201,0.50961 -15.83082,44.46102 l -1.39158,35.58391 -4.27011,4.5391 c -2.34856,2.49649 -6.49103,5.15607 -9.20547,5.91017 -7.57704,2.10495 -48.31004,1.69946 -60.33127,-0.60057 -28.42149,-5.43793 -62.7875,-22.48834 -90.11579,-44.71019 C 158.00264,313.1832 131.14986,285.32072 121.00534,271.92405 109.81904,257.1516 85.694006,220.30997 75.081464,201.79316 38.93355,138.72209 16.001149,73.433387 25.321623,60.126548 28.866721,55.06521 35.936401,54.208708 74.23562,54.200542 l 36.42294,-0.0078 6.04698,6.762428 c 4.32739,4.839386 8.19161,11.867938 13.58865,24.716101 36.77798,87.553529 72.19601,142.773639 93.82597,146.283699 7.91549,1.2845 8.40658,-0.44283 9.87473,-34.73297 1.5564,-36.35168 -0.41969,-87.43743 -3.73176,-96.47269 -1.14124,-3.113303 -5.27668,-11.29167 -9.18985,-18.174149 -8.31314,-14.621118 -8.8977,-19.19104 -3.1582,-24.689829 l 3.95666,-3.790724 52.55962,0.397181 52.55961,0.397182 3.20333,3.725519 c 3.03237,3.52669 3.24661,5.161612 4.0143,30.634042 3.01502,100.039278 3.49302,110.988778 4.96539,113.739918 7.60325,14.20682 36.33517,-10.31086 64.38715,-54.9432 4.54806,-7.23621 16.75396,-28.65023 27.12423,-47.58669 10.37028,-18.936468 20.38072,-36.446817 22.24543,-38.911892 5.22463,-6.906815 10.08418,-7.574618 51.5882,-7.08931 l 36.91196,0.431613 3.3585,3.906903 c 4.32535,5.031632 4.21031,8.855893 -0.68987,22.933702 -4.96336,14.25931 -17.71116,37.669224 -37.98211,69.749934 -24.27441,38.41657 -41.47362,67.062 -42.34159,70.52031 -1.49129,5.94177 3.81301,12.97575 39.88966,52.89727 31.19626,34.521 47.69447,56.32403 52.12747,68.88848 3.32942,9.43657 2.78583,18.40475 -1.35112,22.29121 -4.91473,4.61716 -12.22124,5.41951 -50.15632,5.50782 -30.75158,0.0716 -33.77407,-0.13869 -37.86814,-2.63504 z"
     id="path938"
     inkscape:connector-curvature="0" />
  <path
     style="opacity:1;fill:#adb2c4;fill-opacity:0;fill-rule:nonzero;stroke:none;stroke-width:1.39464927;stroke-miterlimit:4;stroke-dasharray:none;stroke-opacity:1"
     d="m 466.41744,368.94959 c -2.44705,-1.49206 -18.73879,-16.48889 -36.20387,-33.32627 -50.11778,-48.31659 -62.3615,-57.26732 -78.27626,-57.22374 -13.94415,0.0381 -14.11201,0.50961 -15.83082,44.46102 l -1.39158,35.58391 -4.27011,4.5391 c -2.34856,2.49649 -6.49103,5.15607 -9.20547,5.91017 -7.57704,2.10495 -48.31004,1.69946 -60.33127,-0.60057 -28.42149,-5.43793 -62.7875,-22.48834 -90.11579,-44.71019 C 158.00264,313.1832 131.14986,285.32072 121.00534,271.92405 109.81904,257.1516 85.694006,220.30997 75.081464,201.79316 38.93355,138.72209 16.001149,73.433387 25.321623,60.126548 28.866721,55.06521 35.936401,54.208708 74.23562,54.200542 l 36.42294,-0.0078 6.04698,6.762428 c 4.32739,4.839386 8.19161,11.867938 13.58865,24.716101 36.77798,87.553529 72.19601,142.773639 93.82597,146.283699 7.91549,1.2845 8.40658,-0.44283 9.87473,-34.73297 1.5564,-36.35168 -0.41969,-87.43743 -3.73176,-96.47269 -1.14124,-3.113303 -5.27668,-11.29167 -9.18985,-18.174149 -8.31314,-14.621118 -8.8977,-19.19104 -3.1582,-24.689829 l 3.95666,-3.790724 52.55962,0.397181 52.55961,0.397182 3.20333,3.725519 c 3.03237,3.52669 3.24661,5.161612 4.0143,30.634042 3.01502,100.039278 3.49302,110.988778 4.96539,113.739918 7.60325,14.20682 36.33517,-10.31086 64.38715,-54.9432 4.54806,-7.23621 16.75396,-28.65023 27.12423,-47.58669 10.37028,-18.936468 20.38072,-36.446817 22.24543,-38.911892 5.22463,-6.906815 10.08418,-7.574618 51.5882,-7.08931 l 36.91196,0.431613 3.3585,3.906903 c 4.32535,5.031632 4.21031,8.855893 -0.68987,22.933702 -4.96336,14.25931 -17.71116,37.669224 -37.98211,69.749934 -24.27441,38.41657 -41.47362,67.062 -42.34159,70.52031 -1.49129,5.94177 3.81301,12.97575 39.88966,52.89727 31.19626,34.521 47.69447,56.32403 52.12747,68.88848 3.32942,9.43657 2.78583,18.40475 -1.35112,22.29121 -4.91473,4.61716 -12.22124,5.41951 -50.15632,5.50782 -30.75158,0.0716 -33.77407,-0.13869 -37.86814,-2.63504 z"
     id="path940"
     inkscape:connector-curvature="0" />
  <path
     style="opacity:1;fill:#adb2c4;fill-opacity:0;fill-rule:nonzero;stroke:none;stroke-width:1.39464927;stroke-miterlimit:4;stroke-dasharray:none;stroke-opacity:1"
     d="m 466.41744,368.94959 c -2.44705,-1.49206 -18.73879,-16.48889 -36.20387,-33.32627 -50.11778,-48.31659 -62.3615,-57.26732 -78.27626,-57.22374 -13.94415,0.0381 -14.11201,0.50961 -15.83082,44.46102 l -1.39158,35.58391 -4.27011,4.5391 c -2.34856,2.49649 -6.49103,5.15607 -9.20547,5.91017 -7.57704,2.10495 -48.31004,1.69946 -60.33127,-0.60057 -28.42149,-5.43793 -62.7875,-22.48834 -90.11579,-44.71019 C 158.00264,313.1832 131.14986,285.32072 121.00534,271.92405 109.81904,257.1516 85.694006,220.30997 75.081464,201.79316 38.93355,138.72209 16.001149,73.433387 25.321623,60.126548 28.866721,55.06521 35.936401,54.208708 74.23562,54.200542 l 36.42294,-0.0078 6.04698,6.762428 c 4.32739,4.839386 8.19161,11.867938 13.58865,24.716101 36.77798,87.553529 72.19601,142.773639 93.82597,146.283699 7.91549,1.2845 8.40658,-0.44283 9.87473,-34.73297 1.5564,-36.35168 -0.41969,-87.43743 -3.73176,-96.47269 -1.14124,-3.113303 -5.27668,-11.29167 -9.18985,-18.174149 -8.31314,-14.621118 -8.8977,-19.19104 -3.1582,-24.689829 l 3.95666,-3.790724 52.55962,0.397181 52.55961,0.397182 3.20333,3.725519 c 3.03237,3.52669 3.24661,5.161612 4.0143,30.634042 3.01502,100.039278 3.49302,110.988778 4.96539,113.739918 7.60325,14.20682 36.33517,-10.31086 64.38715,-54.9432 4.54806,-7.23621 16.75396,-28.65023 27.12423,-47.58669 10.37028,-18.936468 20.38072,-36.446817 22.24543,-38.911892 5.22463,-6.906815 10.08418,-7.574618 51.5882,-7.08931 l 36.91196,0.431613 3.3585,3.906903 c 4.32535,5.031632 4.21031,8.855893 -0.68987,22.933702 -4.96336,14.25931 -17.71116,37.669224 -37.98211,69.749934 -24.27441,38.41657 -41.47362,67.062 -42.34159,70.52031 -1.49129,5.94177 3.81301,12.97575 39.88966,52.89727 31.19626,34.521 47.69447,56.32403 52.12747,68.88848 3.32942,9.43657 2.78583,18.40475 -1.35112,22.29121 -4.91473,4.61716 -12.22124,5.41951 -50.15632,5.50782 -30.75158,0.0716 -33.77407,-0.13869 -37.86814,-2.63504 z"
     id="path942"
     inkscape:connector-curvature="0" />
  <path
     style="opacity:1;fill:#adb2c4;fill-opacity:0;fill-rule:nonzero;stroke:none;stroke-width:1.39464927;stroke-miterlimit:4;stroke-dasharray:none;stroke-opacity:1"
     d="m 466.41744,368.94959 c -2.44705,-1.49206 -18.73879,-16.48889 -36.20387,-33.32627 -50.11778,-48.31659 -62.3615,-57.26732 -78.27626,-57.22374 -13.94415,0.0381 -14.11201,0.50961 -15.83082,44.46102 l -1.39158,35.58391 -4.27011,4.5391 c -2.34856,2.49649 -6.49103,5.15607 -9.20547,5.91017 -7.57704,2.10495 -48.31004,1.69946 -60.33127,-0.60057 -28.42149,-5.43793 -62.7875,-22.48834 -90.11579,-44.71019 C 158.00264,313.1832 131.14986,285.32072 121.00534,271.92405 109.81904,257.1516 85.694006,220.30997 75.081464,201.79316 38.93355,138.72209 16.001149,73.433387 25.321623,60.126548 28.866721,55.06521 35.936401,54.208708 74.23562,54.200542 l 36.42294,-0.0078 6.04698,6.762428 c 4.32739,4.839386 8.19161,11.867938 13.58865,24.716101 36.77798,87.553529 72.19601,142.773639 93.82597,146.283699 7.91549,1.2845 8.40658,-0.44283 9.87473,-34.73297 1.5564,-36.35168 -0.41969,-87.43743 -3.73176,-96.47269 -1.14124,-3.113303 -5.27668,-11.29167 -9.18985,-18.174149 -8.31314,-14.621118 -8.8977,-19.19104 -3.1582,-24.689829 l 3.95666,-3.790724 52.55962,0.397181 52.55961,0.397182 3.20333,3.725519 c 3.03237,3.52669 3.24661,5.161612 4.0143,30.634042 3.01502,100.039278 3.49302,110.988778 4.96539,113.739918 7.60325,14.20682 36.33517,-10.31086 64.38715,-54.9432 4.54806,-7.23621 16.75396,-28.65023 27.12423,-47.58669 10.37028,-18.936468 20.38072,-36.446817 22.24543,-38.911892 5.22463,-6.906815 10.08418,-7.574618 51.5882,-7.08931 l 36.91196,0.431613 3.3585,3.906903 c 4.32535,5.031632 4.21031,8.855893 -0.68987,22.933702 -4.96336,14.25931 -17.71116,37.669224 -37.98211,69.749934 -24.27441,38.41657 -41.47362,67.062 -42.34159,70.52031 -1.49129,5.94177 3.81301,12.97575 39.88966,52.89727 31.19626,34.521 47.69447,56.32403 52.12747,68.88848 3.32942,9.43657 2.78583,18.40475 -1.35112,22.29121 -4.91473,4.61716 -12.22124,5.41951 -50.15632,5.50782 -30.75158,0.0716 -33.77407,-0.13869 -37.86814,-2.63504 z"
     id="path944"
     inkscape:connector-curvature="0" />
  <path
     style="opacity:1;fill:url(#linearGradient952);fill-opacity:1;fill-rule:nonzero;stroke:none;stroke-width:0.07718448;stroke-miterlimit:4;stroke-dasharray:none;stroke-opacity:1"
     d="m 43.019936,391.64715 c -0.118983,-0.094 -0.911143,-1.03867 -1.760354,-2.09929 -2.436895,-3.04355 -3.032226,-3.60738 -3.806056,-3.60463 -0.678011,0.002 -0.686173,0.0321 -0.769748,2.80068 l -0.06766,2.2415 -0.207627,0.28593 c -0.114195,0.15726 -0.315616,0.32479 -0.447601,0.37229 -0.368421,0.1326 -2.348997,0.10705 -2.93351,-0.0378 -1.381949,-0.34254 -3.05294,-1.41658 -4.381734,-2.81638 -0.621874,-0.6551 -1.927547,-2.41022 -2.420808,-3.2541 -0.543916,-0.93054 -1.716956,-3.25127 -2.232974,-4.41768 -1.757633,-3.97296 -2.872684,-8.08562 -2.419491,-8.92385 0.172375,-0.31882 0.516126,-0.37277 2.378363,-0.37329 l 1.771007,-5e-4 0.294024,0.42598 c 0.210412,0.30484 0.398304,0.74758 0.660726,1.55691 1.78827,5.51516 3.510414,8.99359 4.562135,9.21469 0.384878,0.0809 0.408757,-0.0279 0.480143,-2.1879 0.07568,-2.28986 -0.02041,-5.50785 -0.181451,-6.077 -0.05549,-0.19611 -0.25657,-0.71128 -0.446841,-1.14482 -0.404216,-0.92101 -0.43264,-1.20888 -0.153566,-1.55526 l 0.192386,-0.23878 2.555627,0.025 2.555625,0.025 0.155757,0.23468 c 0.147444,0.22215 0.157861,0.32514 0.195189,1.9297 0.1466,6.30166 0.169842,6.99139 0.241434,7.16469 0.369695,0.89492 1.766738,-0.6495 3.13072,-3.46097 0.221142,-0.45583 0.814634,-1.80474 1.318872,-2.99758 0.504238,-1.19284 0.990979,-2.29585 1.081647,-2.45113 0.25404,-0.43508 0.490327,-0.47714 2.508393,-0.44657 l 1.794784,0.0272 0.163301,0.24611 c 0.210313,0.31695 0.20472,0.55785 -0.03354,1.44464 -0.241336,0.89822 -0.861177,2.37285 -1.846819,4.39368 -1.180303,2.41993 -2.016587,4.22436 -2.058791,4.44221 -0.07251,0.37428 0.185402,0.81736 1.93957,3.3321 1.516867,2.17454 2.319066,3.54796 2.534614,4.33941 0.161887,0.59443 0.135456,1.15936 -0.0657,1.40417 -0.238971,0.29084 -0.594238,0.34139 -2.43877,0.34695 -1.495246,0.005 -1.642209,-0.009 -1.841277,-0.16599 z"
     id="path946"
     inkscape:connector-curvature="0" />
  <path
     style="opacity:1;fill:#adb2c4;fill-opacity:0;fill-rule:nonzero;stroke:none;stroke-width:0.2;stroke-miterlimit:4;stroke-dasharray:none;stroke-opacity:1"
     d="m 471.17013,370.7523 c -3.91407,-0.67241 -15.60375,-10.99306 -58.78667,-51.90193 -33.26644,-31.5146 -44.39889,-39.09418 -58.93549,-40.12646 -15.25019,-1.08297 -16.02405,1.17879 -17.74799,51.87147 -1.04305,30.67083 -1.27764,31.44786 -11.04128,36.57225 -5.71826,3.00121 -36.04064,3.95763 -55.00203,1.73486 -8.04143,-0.94266 -15.874,-1.80153 -17.4057,-1.90859 -1.53171,-0.10708 -3.09822,-0.54291 -3.48114,-0.96857 -0.38293,-0.42564 -5.63845,-2.55706 -11.67894,-4.73648 C 186.25425,342.94697 143.42272,305.8342 102.58357,244.74066 62.154178,184.2601 33.859141,125.44807 25.334009,84.175262 21.762859,66.886223 22.646538,60.881657 29.286811,57.316117 c 3.68946,-1.98108 10.169862,-2.416163 42.759418,-2.870789 l 38.410921,-0.535835 5.21201,6.059582 c 4.10606,4.773788 16.42085,27.107737 16.77756,30.427569 0.0411,0.382925 1.10676,2.889347 2.36803,5.569825 1.26128,2.680479 3.98772,8.933211 6.05876,13.894951 5.98731,14.34429 26.34833,54.36979 35.59885,69.97987 22.80051,38.47547 47.98669,61.40233 54.3636,49.48694 2.56938,-4.8009 3.8187,-33.0488 3.21933,-72.78991 -0.70845,-46.97355 -1.30283,-50.61406 -11.71904,-71.778671 -4.60781,-9.362574 -8.37784,-18.142372 -8.37784,-19.510661 0,-1.36829 1.62222,-4.415692 3.60492,-6.772006 l 3.60493,-4.284206 h 42.83228 c 23.55775,0 47.67484,0.409347 53.59353,0.90966 15.19163,1.284163 15.00361,0.87118 16.30189,35.807737 0.57293,15.417507 1.72985,46.447107 2.57095,68.954667 0.84109,22.50756 2.14938,42.08159 2.90734,43.49783 4.27174,7.98182 17.02465,2.1276 33.82614,-15.52788 16.3434,-17.17412 39.89202,-53.13082 56.75528,-86.66039 2.40353,-4.778987 5.0725,-9.14943 5.93103,-9.712091 0.8819,-0.577973 0.95521,-1.041573 0.16852,-1.065665 -0.86874,-0.02661 -0.84216,-0.427412 0.0707,-1.065665 0.80473,-0.562661 5.19097,-7.510255 9.7472,-15.439098 5.65554,-9.841878 9.60953,-15.130777 12.46142,-16.668528 3.44885,-1.85963 10.12695,-2.331219 38.29256,-2.704116 40.89306,-0.541402 45.49586,0.05799 49.2042,6.407546 2.61003,4.468987 2.615,4.83058 0.18937,13.791567 -4.57099,16.886376 -16.97793,39.91099 -49.34152,91.56717 -19.438,31.02536 -33.47106,55.38058 -33.47106,58.091 0,3.74137 14.62247,22.08115 40.97339,51.38958 45.36188,50.45311 58.11552,71.61552 52.33004,86.83248 -2.70498,7.11466 -8.27943,8.12916 -46.65614,8.491 -19.14628,0.18054 -36.55466,0.0287 -38.68528,-0.33728 z"
     id="path954"
     inkscape:connector-curvature="0" />
  <rect
     style="opacity:1;fill:#adb2c4;fill-opacity:0;fill-rule:nonzero;stroke:none;stroke-width:0.2;stroke-miterlimit:4;stroke-dasharray:none;stroke-opacity:1"
     id="rect968"
     width="25.6"
     height="20.553846"
     x="21.292307"
     y="371.8154" />
</svg>
